<?xml version="1.0" encoding="UTF-8" standalone="no"?>
<!-- Created with Inkscape (http://www.inkscape.org/) -->

<svg
   xmlns:dc="http://purl.org/dc/elements/1.1/"
   xmlns:cc="http://creativecommons.org/ns#"
   xmlns:rdf="http://www.w3.org/1999/02/22-rdf-syntax-ns#"
   xmlns:svg="http://www.w3.org/2000/svg"
   xmlns="http://www.w3.org/2000/svg"
   xmlns:sodipodi="http://sodipodi.sourceforge.net/DTD/sodipodi-0.dtd"
   xmlns:inkscape="http://www.inkscape.org/namespaces/inkscape"
   sodipodi:docname="card_source.svg"
   inkscape:version="0.92.2 5c3e80d, 2017-08-06"
   version="1.1"
   id="svg2"
   viewBox="0 0 315 180"
   height="2in"
   width="3.5in"
   inkscape:export-filename="card_final.png"
   inkscape:export-xdpi="90"
   inkscape:export-ydpi="90">
  <sodipodi:namedview
     inkscape:snap-to-guides="true"
     fit-margin-bottom="0"
     fit-margin-right="0"
     fit-margin-left="0"
     fit-margin-top="0"
     inkscape:object-nodes="true"
     inkscape:window-maximized="0"
     inkscape:window-y="115"
     inkscape:window-x="191"
     inkscape:window-height="1025"
     inkscape:window-width="1774"
     inkscape:guide-bbox="true"
     showguides="true"
     inkscape:object-paths="true"
     inkscape:snap-page="true"
     units="in"
     showgrid="false"
     inkscape:current-layer="layer1"
     inkscape:document-units="in"
     inkscape:cy="68.689215"
     inkscape:cx="165.42996"
     inkscape:zoom="3.5759934"
     inkscape:pageshadow="2"
     inkscape:pageopacity="0.0"
     borderopacity="1.0"
     bordercolor="#666666"
     pagecolor="#ffffff"
     id="base"
     inkscape:snap-smooth-nodes="true"
     inkscape:snap-bbox="true"
     inkscape:bbox-paths="true"
     inkscape:bbox-nodes="true"
     inkscape:snap-bbox-edge-midpoints="true"
     inkscape:snap-bbox-midpoints="true"
     inkscape:snap-global="false"
     inkscape:snap-intersection-paths="true">
    <sodipodi:guide
       id="guide5766"
       orientation="1,0"
       position="-11.25,-11.250015"
       inkscape:locked="false" />
    <sodipodi:guide
       id="guide5770"
       orientation="1,0"
       position="0,-11.249997"
       inkscape:locked="false" />
    <sodipodi:guide
       id="guide5772"
       orientation="1,0"
       position="11.25,-11.249997"
       inkscape:locked="false" />
    <sodipodi:guide
       id="guide5774"
       orientation="1,0"
       position="303.75,-11.249997"
       inkscape:locked="false" />
    <sodipodi:guide
       id="guide5776"
       orientation="1,0"
       position="315,-11.249997"
       inkscape:locked="false" />
    <sodipodi:guide
       id="guide5778"
       orientation="1,0"
       position="326.25,-11.249997"
       inkscape:locked="false" />
    <sodipodi:guide
       id="guide5780"
       orientation="0,1"
       position="-11.25,2.6171875e-06"
       inkscape:locked="false" />
    <sodipodi:guide
       id="guide5782"
       orientation="0,1"
       position="-11.25,11.250003"
       inkscape:locked="false" />
    <sodipodi:guide
       id="guide5784"
       orientation="0,1"
       position="-11.25,168.75"
       inkscape:locked="false" />
    <sodipodi:guide
       id="guide5786"
       orientation="0,1"
       position="-11.25,180"
       inkscape:locked="false" />
    <sodipodi:guide
       id="guide5788"
       orientation="0,1"
       position="-11.25,191.25"
       inkscape:locked="false" />
    <sodipodi:guide
       id="guide4229"
       orientation="0,1"
       position="-11.25,-11.249997"
       inkscape:locked="false" />
  </sodipodi:namedview>
  <defs
     id="defs4">
    <clipPath
       clipPathUnits="userSpaceOnUse"
       id="clipPath4176">
      <path
         d="M 0,0 270,0 270,162 0,162 0,0 Z"
         id="path4178"
         inkscape:connector-curvature="0" />
    </clipPath>
    <clipPath
       clipPathUnits="userSpaceOnUse"
       id="clipPath4860">
      <path
         d="M 0,162 270,162 270,0 0,0 0,162 Z"
         id="path4862"
         inkscape:connector-curvature="0" />
    </clipPath>
  </defs>
  <metadata
     id="metadata7">
    <rdf:RDF>
      <cc:Work
         rdf:about="">
        <dc:format>image/svg+xml</dc:format>
        <dc:type
           rdf:resource="http://purl.org/dc/dcmitype/StillImage" />
        <dc:title></dc:title>
      </cc:Work>
    </rdf:RDF>
  </metadata>
  <g
     style="display:inline"
     transform="translate(-11.25,-861.11218)"
     id="layer1"
     inkscape:groupmode="layer"
     inkscape:label="Capa 1">
    <g
       transform="matrix(2.8099516,0,0,2.8099516,-309.9762,-2412.488)"
       style="font-style:normal;font-weight:normal;font-size:40px;line-height:125%;font-family:sans-serif;letter-spacing:26.39999962px;word-spacing:0px;fill:#0b78dc;fill-opacity:1;stroke:none;stroke-width:1px;stroke-linecap:butt;stroke-linejoin:miter;stroke-opacity:1"
       id="g882">
      <path
         inkscape:connector-curvature="0"
         d="m 132.32155,807.90527 h 7.88 c 3.28,0 5.68,-0.52 7.48,-1.64 2.44,-1.48 3.84,-4.12 3.84,-7.16 0,-1.84 -0.52,-3.64 -1.44,-4.84 -0.84,-1.12 -1.68,-1.68 -3.6,-2.48 2.36,-1.24 3.28,-2.8 3.28,-5.56 0,-2.76 -1.24,-5.08 -3.36,-6.44 -1.76,-1.12 -3.6,-1.44 -8,-1.44 h -6.08 z m 5.48,-5.24 v -7.56 h 2.6 c 3.8,0 5.6,1.24 5.6,3.88 0,2.56 -1.64,3.68 -5.48,3.68 z m 0,-12.92 v -6.04 h 2.24 c 2.84,0 4.24,0.96 4.24,3 0,2.12 -1.4,3.04 -4.72,3.04 z"
         style="font-style:normal;font-variant:normal;font-weight:600;font-stretch:normal;font-family:'URW Gothic L';-inkscape-font-specification:'URW Gothic L Semi-Bold';letter-spacing:1px;fill:#0b78dc;fill-opacity:1"
         id="path880" />
    </g>
    <path
       inkscape:connector-curvature="0"
       id="path884"
       d="m 61.84021,-210.31482 v 9.21753 34.05578 24.7284 c 0,7.30588 -2.472088,10.90209 -7.417603,10.90209 -3.821534,0 -6.294325,-2.1346 -7.305908,-6.29333 h -15.39917 c 0.67439,6.51909 1.910651,9.89012 5.282593,13.59925 4.271127,4.7207 10.790721,7.5311 17.759399,7.5311 13.937361,0 22.479859,-9.66535 22.479859,-25.28867 v -25.17884 -34.05578 -9.21753 z"
       style="font-style:normal;font-variant:normal;font-weight:600;font-stretch:normal;font-size:medium;line-height:125%;font-family:'URW Gothic L';-inkscape-font-specification:'URW Gothic L Semi-Bold';letter-spacing:1px;word-spacing:0px;fill:#333333;fill-opacity:1;stroke:none;stroke-width:2.80995154px;stroke-linecap:butt;stroke-linejoin:miter;stroke-opacity:1" />
    <g
       transform="matrix(2.8099516,0,0,2.8099516,-309.9762,-2412.488)"
       id="g888"
       style="font-style:normal;font-weight:normal;font-size:40px;line-height:125%;font-family:sans-serif;letter-spacing:26.39999962px;word-spacing:0px;fill:#228ff4;fill-opacity:0.411043;stroke:none;stroke-width:1px;stroke-linecap:butt;stroke-linejoin:miter;stroke-opacity:1">
      <path
         id="path886"
         style="font-style:normal;font-variant:normal;font-weight:600;font-stretch:normal;font-family:'URW Gothic L';-inkscape-font-specification:'URW Gothic L Semi-Bold';letter-spacing:1px;fill:#228ff4;fill-opacity:0.411043"
         d="m 132.32155,807.90527 h 7.88 c 3.28,0 5.68,-0.52 7.48,-1.64 2.44,-1.48 3.84,-4.12 3.84,-7.16 0,-1.84 -0.52,-3.64 -1.44,-4.84 -0.84,-1.12 -1.68,-1.68 -3.6,-2.48 2.36,-1.24 3.28,-2.8 3.28,-5.56 0,-2.76 -1.24,-5.08 -3.36,-6.44 -1.76,-1.12 -3.6,-1.44 -8,-1.44 h -6.08 z m 5.48,-5.24 v -7.56 h 2.6 c 3.8,0 5.6,1.24 5.6,3.88 0,2.56 -1.64,3.68 -5.48,3.68 z m 0,-12.92 v -6.04 h 2.24 c 2.84,0 4.24,0.96 4.24,3 0,2.12 -1.4,3.04 -4.72,3.04 z"
         inkscape:connector-curvature="0" />
    </g>
    <path
       inkscape:connector-curvature="0"
       id="path912"
       d="M 77.23938,7.68689 H 61.84021 c 0,7.30588 -2.472088,10.90209 -7.417603,10.90209 -3.821534,0 -6.294325,-2.1346 -7.305908,-6.29333 h -15.39917 c 0.674391,6.51909 1.910651,9.89012 5.282593,13.59925 4.271127,4.7207 10.790722,7.5311 17.759399,7.5311 13.937362,0 22.479859,-9.66535 22.479859,-25.28867 z"
       style="font-style:normal;font-variant:normal;font-weight:600;font-stretch:normal;font-size:medium;line-height:125%;font-family:'URW Gothic L';-inkscape-font-specification:'URW Gothic L Semi-Bold';letter-spacing:1px;word-spacing:0px;fill:#ffaa27;fill-opacity:1;stroke:none;stroke-width:2.80995154px;stroke-linecap:butt;stroke-linejoin:miter;stroke-opacity:1" />
    <path
       id="path914"
       d="m 61.84021,-75.37525 v 15.06043 h 15.39917 0.974121 5.321045 c 7.980263,0 11.912842,2.69787 11.912842,8.43017 0,5.9571 -3.933291,8.54187 -13.26233,8.54187 H 77.23938 V -57.91614 H 61.84021 V 7.68689 h 22.142944 c 9.216641,0 15.960762,-1.46163 21.018676,-4.60877 6.85628,-4.15873 10.79041,-11.57737 10.79041,-20.11963 0,-5.17031 -1.46147,-10.2273 -4.04664,-13.59924 -2.36035,-3.14715 -4.72147,-4.72103 -10.11657,-6.96899 6.63148,-3.48434 9.21753,-7.8671 9.21753,-15.62256 0,-7.75547 -3.48382,-14.27479 -9.44092,-18.09632 -4.945515,-3.14715 -10.116072,-4.04663 -22.479859,-4.04663 z m 15.39917,47.09473 h 7.305908 c 10.677816,0 15.736082,3.48383 15.736082,10.9021 0,7.19347 -4.608954,10.3418 -15.399167,10.3418 H 77.23938 Z"
       style="font-style:normal;font-variant:normal;font-weight:600;font-stretch:normal;font-size:medium;line-height:125%;font-family:'URW Gothic L';-inkscape-font-specification:'URW Gothic L Semi-Bold';letter-spacing:1px;word-spacing:0px;fill:#1482e5;fill-opacity:1;stroke:none;stroke-width:2.80995154px;stroke-linecap:butt;stroke-linejoin:miter;stroke-opacity:1"
       inkscape:connector-curvature="0" />
    <path
       inkscape:connector-curvature="0"
       id="path916"
       d="M 77.23938,-57.91614 H 61.84021 v 6.81885 34.05578 24.7284 h 15.39917 v -24.7284 -34.05578 z"
       style="font-style:normal;font-variant:normal;font-weight:600;font-stretch:normal;font-size:medium;line-height:125%;font-family:'URW Gothic L';-inkscape-font-specification:'URW Gothic L Semi-Bold';letter-spacing:1px;word-spacing:0px;fill:#ff3c1a;fill-opacity:1;stroke:none;stroke-width:2.80995154px;stroke-linecap:butt;stroke-linejoin:miter;stroke-opacity:1" />
    <path
       id="path943"
       d="m 61.84021,93.37475 v 15.06043 h 17.797852 3.896484 c 7.980263,0 11.912842,2.69787 11.912842,8.43017 0,5.9571 -3.93329,8.54187 -13.26233,8.54187 h -2.546996 v 10.2649 4.79736 h 4.907226 c 10.677816,0 15.736082,3.48383 15.736082,10.9021 0,7.19347 -4.608954,10.3418 -15.399167,10.3418 h -6.697999 c -1.106527,3.6861 -2.832639,6.90428 -5.163574,9.53063 -1.940384,2.18632 -4.288737,3.92902 -6.959839,5.19288 h 17.922363 c 9.216641,0 15.960765,-1.46163 21.018676,-4.60877 6.85628,-4.15873 10.79041,-11.57737 10.79041,-20.11963 0,-5.1703 -1.46147,-10.2273 -4.04664,-13.59924 -2.36035,-3.14715 -4.72147,-4.72103 -10.11657,-6.96899 6.63148,-3.48434 9.21753,-7.8671 9.21753,-15.62256 0,-7.75547 -3.48382,-14.27479 -9.44092,-18.09632 -4.945515,-3.14715 -10.116072,-4.04663 -22.479859,-4.04663 z m 2.398681,19.85779 v 1.745 20.69458 15.02563 c 0,3.92353 -0.613068,7.11365 -2.270508,9.54346 -0.03931,0.0576 -0.08755,0.10658 -0.128173,0.16296 v 12.58668 c 3.051218,-0.99132 5.576973,-2.66296 7.591553,-4.93287 3.405417,-3.83702 5.408935,-9.53538 5.408935,-16.90979 v -0.45044 -15.02563 -20.69458 -1.745 z"
       style="font-style:normal;font-variant:normal;font-weight:600;font-stretch:normal;font-size:medium;line-height:125%;font-family:'URW Gothic L';-inkscape-font-specification:'URW Gothic L Semi-Bold';letter-spacing:1px;word-spacing:0px;fill:#1482e5;fill-opacity:1;stroke:none;stroke-width:2.80995154px;stroke-linecap:butt;stroke-linejoin:miter;stroke-opacity:1"
       inkscape:connector-curvature="0" />
    <path
       inkscape:connector-curvature="0"
       id="path945"
       d="M 77.23938,110.83386 H 61.84021 v 4.14349 20.69412 15.02631 h 15.39917 v -15.02631 -20.69412 z"
       style="font-style:normal;font-variant:normal;font-weight:600;font-stretch:normal;font-size:medium;line-height:125%;font-family:'URW Gothic L';-inkscape-font-specification:'URW Gothic L Semi-Bold';letter-spacing:1px;word-spacing:0px;fill:#ff8927;fill-opacity:1;stroke:none;stroke-width:2.80995154px;stroke-linecap:butt;stroke-linejoin:miter;stroke-opacity:1" />
    <path
       inkscape:connector-curvature="0"
       id="path947"
       d="M 77.23938,150.69778 H 61.84021 c 0,7.30588 -2.472088,10.90209 -7.417603,10.90209 -3.821534,0 -6.294325,-2.1346 -7.305908,-6.29333 h -15.39917 c 0.674391,6.51909 1.910651,9.89012 5.282593,13.59925 4.271127,4.7207 10.790722,7.5311 17.759399,7.5311 13.937362,0 22.479859,-9.66535 22.479859,-25.28867 z"
       style="font-style:normal;font-variant:normal;font-weight:600;font-stretch:normal;font-size:medium;line-height:125%;font-family:'URW Gothic L';-inkscape-font-specification:'URW Gothic L Semi-Bold';letter-spacing:1px;word-spacing:0px;fill:#ff8927;fill-opacity:1;stroke:none;stroke-width:2.80995154px;stroke-linecap:butt;stroke-linejoin:miter;stroke-opacity:1" />
    <rect
       y="93.374763"
       x="61.84021"
       height="15.060425"
       width="15.39917"
       id="rect949"
       style="fill:#ff3c1a;fill-opacity:1;stroke:none;stroke-width:4.79812527;stroke-linecap:round;stroke-linejoin:miter;stroke-miterlimit:4;stroke-dasharray:none;stroke-opacity:1;paint-order:markers fill stroke" />
    <rect
       y="108.43518"
       x="61.84021"
       height="8.6189079"
       width="15.39917"
       id="rect951"
       style="fill:#ff8927;fill-opacity:1;stroke:none;stroke-width:4.79812527;stroke-linecap:round;stroke-linejoin:miter;stroke-miterlimit:4;stroke-dasharray:none;stroke-opacity:1;paint-order:markers fill stroke" />
    <path
       style="fill:#ffffff;fill-opacity:1;stroke:none;stroke-width:1;stroke-opacity:1"
       d="M 0,268.61218 V 471.1122 H 98.748779 168.75 337.5 V 268.61218 H 220.1825 168.75 Z"
       id="path4672"
       inkscape:connector-curvature="0" />
    <g
       id="g964"
       transform="matrix(0.85481251,0,0,0.85481251,105.70338,-461.12301)"
       style="fill:#1482e5;fill-opacity:1;stroke-width:1.16984713">
      <path
         sodipodi:nodetypes="ccssscccssscccccccccccccccccccccccccccccccscsccsccc"
         inkscape:connector-curvature="0"
         id="path4180"
         d="m 79.638062,899.63208 v 15.0531 h 3.896488 c 7.98026,0 11.91284,2.69787 11.91284,8.43017 0,5.9571 -3.93329,8.54187 -13.26233,8.54187 h -2.546998 v 10.2649 4.79736 h 4.907228 c 10.67781,0 15.73608,3.48383 15.73608,10.9021 0,7.19347 -4.60895,10.3418 -15.39917,10.3418 h -6.697996 c -0.136313,0.45408 -0.28052,0.9008 -0.435791,1.34033 -0.0024,0.007 -0.005,0.0135 -0.0073,0.0201 -0.0024,0.007 -0.0049,0.0134 -0.0073,0.0202 -0.155843,0.43904 -0.321526,0.8705 -0.496216,1.29454 -0.170084,0.41287 -0.348648,0.81942 -0.536499,1.21766 -0.0076,0.0162 -0.01431,0.0332 -0.02197,0.0494 -0.0053,0.0111 -0.01122,0.0219 -0.01648,0.033 -0.16621,0.3492 -0.340155,0.69146 -0.52002,1.02906 -0.04171,0.0785 -0.08206,0.15832 -0.124511,0.2362 -0.171006,0.31285 -0.349983,0.61859 -0.532838,0.92103 -0.04459,0.0739 -0.08654,0.15007 -0.131836,0.22339 -0.167937,0.27111 -0.34428,0.53594 -0.521851,0.79833 -0.07438,0.11014 -0.145478,0.22285 -0.221557,0.33142 -0.170373,0.24272 -0.348539,0.47745 -0.527344,0.71228 -0.08176,0.10752 -0.159997,0.21826 -0.243529,0.3241 -0.264405,0.33466 -0.536526,0.66193 -0.818482,0.97961 -0.250036,0.28173 -0.507472,0.55524 -0.770874,0.82215 -0.136565,0.13848 -0.279242,0.27017 -0.419311,0.40466 -0.140204,0.1345 -0.279297,0.27055 -0.422974,0.401 -0.154114,0.14009 -0.312539,0.27473 -0.470581,0.41016 -0.124069,0.10618 -0.247076,0.21349 -0.373536,0.31677 -0.175969,0.14392 -0.355969,0.28285 -0.536499,0.42114 -0.126043,0.0964 -0.252627,0.192 -0.380859,0.28565 -0.185509,0.13569 -0.373938,0.26746 -0.563965,0.39734 -0.11039,0.0753 -0.221362,0.15003 -0.333252,0.22339 -0.213166,0.13998 -0.427822,0.27738 -0.646362,0.41015 -0.104739,0.0636 -0.210822,0.12488 -0.316772,0.18677 -0.224335,0.13121 -0.449618,0.26083 -0.679322,0.38452 -0.08757,0.0471 -0.177172,0.0913 -0.265503,0.13733 -0.257426,0.13422 -0.516177,0.267 -0.780029,0.39185 H 83.9832 c 9.21665,0 15.96077,-1.46163 21.01868,-4.60877 6.85628,-4.15873 10.79041,-11.57737 10.79041,-20.11963 0,-5.1703 -1.46147,-10.2273 -4.04664,-13.59924 -2.36035,-3.14715 -4.72147,-4.72103 -10.11657,-6.96899 6.63148,-3.48434 9.21753,-7.8671 9.21753,-15.62256 0,-7.75547 -3.48382,-14.27479 -9.44092,-18.09632 -4.8434,-3.08217 -9.94708,-4.00236 -21.767578,-4.0393 z"
         style="font-style:normal;font-variant:normal;font-weight:600;font-stretch:normal;font-size:medium;line-height:125%;font-family:'URW Gothic L';-inkscape-font-specification:'URW Gothic L Semi-Bold';letter-spacing:1px;word-spacing:0px;fill:#3b99ee;fill-opacity:1;stroke:none;stroke-width:3.2872138px;stroke-linecap:butt;stroke-linejoin:miter;stroke-opacity:1" />
      <path
         inkscape:connector-curvature="0"
         id="path902"
         d="m 61.84021,899.62475 v 15.06043 2.39868 4.14368 2.07641 18.61817 15.02563 c 0,7.30588 -2.472088,10.9021 -7.417603,10.9021 -3.821534,0 -6.294325,-2.13461 -7.305908,-6.29334 h -15.39917 c 0.674392,6.51909 1.910651,9.89012 5.282593,13.59924 4.271127,4.72071 10.790723,7.53114 17.759399,7.53114 13.937363,0 22.479859,-9.66538 22.479859,-25.2887 v -0.45044 -15.02563 -20.69458 -4.14368 -2.39868 -15.06043 z"
         style="font-style:normal;font-variant:normal;font-weight:600;font-stretch:normal;font-size:medium;line-height:125%;font-family:'URW Gothic L';-inkscape-font-specification:'URW Gothic L Semi-Bold';letter-spacing:1px;word-spacing:0px;fill:#ff8927;fill-opacity:1;stroke:none;stroke-width:3.2872138px;stroke-linecap:butt;stroke-linejoin:miter;stroke-opacity:1" />
    </g>
    <text
       xml:space="preserve"
       style="font-style:normal;font-weight:normal;font-size:14.32992458px;line-height:105.99999428%;font-family:sans-serif;letter-spacing:0px;word-spacing:0px;fill:#000000;fill-opacity:1;stroke:none;stroke-width:0.99999994px;stroke-linecap:butt;stroke-linejoin:miter;stroke-opacity:1"
       x="-57.495033"
       y="944.4093"
       id="text4257"><tspan
         sodipodi:role="line"
         x="-57.504406"
         y="944.4093"
         style="font-style:normal;font-variant:normal;font-weight:normal;font-stretch:normal;font-size:12.11246014px;line-height:0px;font-family:Consolas;-inkscape-font-specification:Consolas;text-align:end;letter-spacing:-0.009375px;text-anchor:end;fill:#000000;fill-opacity:1;stroke-width:0.99999994px"
         id="tspan4686">software developer</tspan></text>
    <text
       id="text4678"
       y="961.00299"
       x="-88.787003"
       style="font-style:normal;font-weight:normal;line-height:0%;font-family:sans-serif;letter-spacing:0px;word-spacing:0px;fill:#000000;fill-opacity:1;stroke:none;stroke-width:1px;stroke-linecap:butt;stroke-linejoin:miter;stroke-opacity:1"
       xml:space="preserve"><tspan
         style="font-style:normal;font-variant:normal;font-weight:normal;font-stretch:normal;font-size:10.1430769px;line-height:1.25;font-family:Aaargh;-inkscape-font-specification:Aaargh;text-align:center;letter-spacing:2.62204194px;text-anchor:middle;fill:#000000;fill-opacity:1"
         y="961.00299"
         x="-87.475983"
         id="tspan4676"
         sodipodi:role="line">designer</tspan></text>
    <g
       id="g4695"
       transform="translate(95.786925,-499.96932)"
       style="fill:#000000;fill-opacity:1">
      <text
         xml:space="preserve"
         style="font-style:normal;font-weight:normal;font-size:14.32992458px;line-height:0%;font-family:sans-serif;letter-spacing:0px;word-spacing:0px;fill:#000000;fill-opacity:1;stroke:none;stroke-width:0.99999994px;stroke-linecap:butt;stroke-linejoin:miter;stroke-opacity:1"
         x="72.836441"
         y="910.23224"
         id="text4166"><tspan
           sodipodi:role="line"
           id="tspan4168"
           x="77.03894"
           y="910.23224"
           style="font-style:normal;font-variant:normal;font-weight:normal;font-stretch:normal;font-size:17.33168221px;line-height:1.25;font-family:Aaargh;-inkscape-font-specification:Aaargh;text-align:center;letter-spacing:8.4049921px;text-anchor:middle;fill:#000000;fill-opacity:1;stroke-width:0.99999994px">JUAN</tspan></text>
      <text
         id="text4684"
         y="930.57605"
         x="71.783844"
         style="font-style:normal;font-weight:normal;font-size:10.75581074px;line-height:0%;font-family:sans-serif;letter-spacing:0px;word-spacing:0px;fill:#000000;fill-opacity:1;stroke:none;stroke-width:0.99999982px;stroke-linecap:butt;stroke-linejoin:miter;stroke-opacity:1"
         xml:space="preserve"><tspan
           style="font-style:normal;font-variant:normal;font-weight:normal;font-stretch:normal;font-size:13.00888062px;line-height:1.25;font-family:Aaargh;-inkscape-font-specification:Aaargh;text-align:center;letter-spacing:6.30865145px;text-anchor:middle;fill:#000000;fill-opacity:1;stroke-width:0.99999982px"
           y="930.57605"
           x="74.938171"
           id="tspan4682"
           sodipodi:role="line">BARBA</tspan></text>
    </g>
    <path
       id="path4697"
       d="m 0,849.8622 v 202.5 H 98.748779 168.75 337.5 v -202.5 H 220.1825 168.75 Z"
       style="fill:#79898e;fill-opacity:1;stroke:none;stroke-width:1;stroke-opacity:1"
       inkscape:connector-curvature="0" />
    <g
       style="fill:#1482e5;fill-opacity:1;stroke-width:1.16984713"
       transform="matrix(0.85481251,0,0,0.85481251,105.70338,-217.37301)"
       id="g4703">
      <path
         style="font-style:normal;font-variant:normal;font-weight:600;font-stretch:normal;font-size:medium;line-height:125%;font-family:'URW Gothic L';-inkscape-font-specification:'URW Gothic L Semi-Bold';letter-spacing:1px;word-spacing:0px;fill:#53d0fc;fill-opacity:1;stroke:none;stroke-width:3.2872138px;stroke-linecap:butt;stroke-linejoin:miter;stroke-opacity:1"
         d="m 79.638062,899.63208 v 15.0531 h 3.896488 c 7.98026,0 11.91284,2.69787 11.91284,8.43017 0,5.9571 -3.93329,8.54187 -13.26233,8.54187 h -2.546998 v 10.2649 4.79736 h 4.907228 c 10.67781,0 15.73608,3.48383 15.73608,10.9021 0,7.19347 -4.60895,10.3418 -15.39917,10.3418 h -6.697996 c -0.136313,0.45408 -0.28052,0.9008 -0.435791,1.34033 -0.0024,0.007 -0.005,0.0135 -0.0073,0.0201 -0.0024,0.007 -0.0049,0.0134 -0.0073,0.0202 -0.155843,0.43904 -0.321526,0.8705 -0.496216,1.29454 -0.170084,0.41287 -0.348648,0.81942 -0.536499,1.21766 -0.0076,0.0162 -0.01431,0.0332 -0.02197,0.0494 -0.0053,0.0111 -0.01122,0.0219 -0.01648,0.033 -0.16621,0.3492 -0.340155,0.69146 -0.52002,1.02906 -0.04171,0.0785 -0.08206,0.15832 -0.124511,0.2362 -0.171006,0.31285 -0.349983,0.61859 -0.532838,0.92103 -0.04459,0.0739 -0.08654,0.15007 -0.131836,0.22339 -0.167937,0.27111 -0.34428,0.53594 -0.521851,0.79833 -0.07438,0.11014 -0.145478,0.22285 -0.221557,0.33142 -0.170373,0.24272 -0.348539,0.47745 -0.527344,0.71228 -0.08176,0.10752 -0.159997,0.21826 -0.243529,0.3241 -0.264405,0.33466 -0.536526,0.66193 -0.818482,0.97961 -0.250036,0.28173 -0.507472,0.55524 -0.770874,0.82215 -0.136565,0.13848 -0.279242,0.27017 -0.419311,0.40466 -0.140204,0.1345 -0.279297,0.27055 -0.422974,0.401 -0.154114,0.14009 -0.312539,0.27473 -0.470581,0.41016 -0.124069,0.10618 -0.247076,0.21349 -0.373536,0.31677 -0.175969,0.14392 -0.355969,0.28285 -0.536499,0.42114 -0.126043,0.0964 -0.252627,0.192 -0.380859,0.28565 -0.185509,0.13569 -0.373938,0.26746 -0.563965,0.39734 -0.11039,0.0753 -0.221362,0.15003 -0.333252,0.22339 -0.213166,0.13998 -0.427822,0.27738 -0.646362,0.41015 -0.104739,0.0636 -0.210822,0.12488 -0.316772,0.18677 -0.224335,0.13121 -0.449618,0.26083 -0.679322,0.38452 -0.08757,0.0471 -0.177172,0.0913 -0.265503,0.13733 -0.257426,0.13422 -0.516177,0.267 -0.780029,0.39185 H 83.9832 c 9.21665,0 15.96077,-1.46163 21.01868,-4.60877 6.85628,-4.15873 10.79041,-11.57737 10.79041,-20.11963 0,-5.1703 -1.46147,-10.2273 -4.04664,-13.59924 -2.36035,-3.14715 -4.72147,-4.72103 -10.11657,-6.96899 6.63148,-3.48434 9.21753,-7.8671 9.21753,-15.62256 0,-7.75547 -3.48382,-14.27479 -9.44092,-18.09632 -4.8434,-3.08217 -9.94708,-4.00236 -21.767578,-4.0393 z"
         id="path4699"
         inkscape:connector-curvature="0"
         sodipodi:nodetypes="ccssscccssscccccccccccccccccccccccccccccccscsccsccc" />
      <path
         style="font-style:normal;font-variant:normal;font-weight:600;font-stretch:normal;font-size:medium;line-height:125%;font-family:'URW Gothic L';-inkscape-font-specification:'URW Gothic L Semi-Bold';letter-spacing:1px;word-spacing:0px;fill:#fd7722;fill-opacity:1;stroke:none;stroke-width:3.2872138px;stroke-linecap:butt;stroke-linejoin:miter;stroke-opacity:1"
         d="m 61.84021,899.62475 v 15.06043 2.39868 4.14368 2.07641 18.61817 15.02563 c 0,7.30588 -2.472088,10.9021 -7.417603,10.9021 -3.821534,0 -6.294325,-2.13461 -7.305908,-6.29334 h -15.39917 c 0.674392,6.51909 1.910651,9.89012 5.282593,13.59924 4.271127,4.72071 10.790723,7.53114 17.759399,7.53114 13.937363,0 22.479859,-9.66538 22.479859,-25.2887 v -0.45044 -15.02563 -20.69458 -4.14368 -2.39868 -15.06043 z"
         id="path4701"
         inkscape:connector-curvature="0" />
    </g>
    <g
       style="fill:#f9f9f9;fill-opacity:1;stroke:#ffffff;stroke-width:0.43781251;stroke-miterlimit:4;stroke-dasharray:none"
       transform="translate(95.786925,81.28068)"
       id="g4713">
      <text
         id="text4707"
         y="910.23224"
         x="72.836441"
         style="font-style:normal;font-weight:normal;font-size:14.32992458px;line-height:0%;font-family:sans-serif;letter-spacing:0px;word-spacing:0px;fill:#f9f9f9;fill-opacity:1;stroke:#ffffff;stroke-width:0.43781251;stroke-linecap:butt;stroke-linejoin:miter;stroke-miterlimit:4;stroke-dasharray:none;stroke-opacity:1"
         xml:space="preserve"><tspan
           style="font-style:normal;font-variant:normal;font-weight:normal;font-stretch:normal;font-size:17.33168221px;line-height:1.25;font-family:Aaargh;-inkscape-font-specification:Aaargh;text-align:center;letter-spacing:8.4049921px;text-anchor:middle;fill:#f9f9f9;fill-opacity:1;stroke:#ffffff;stroke-width:0.43781251;stroke-miterlimit:4;stroke-dasharray:none"
           y="910.23224"
           x="77.03894"
           id="tspan4705"
           sodipodi:role="line">JUAN</tspan></text>
      <text
         xml:space="preserve"
         style="font-style:normal;font-weight:normal;font-size:10.75581074px;line-height:0%;font-family:sans-serif;letter-spacing:0px;word-spacing:0px;fill:#f9f9f9;fill-opacity:1;stroke:#ffffff;stroke-width:0.43781251;stroke-linecap:butt;stroke-linejoin:miter;stroke-miterlimit:4;stroke-dasharray:none;stroke-opacity:1"
         x="71.783844"
         y="930.57605"
         id="text4711"><tspan
           sodipodi:role="line"
           id="tspan4709"
           x="74.938171"
           y="930.57605"
           style="font-style:normal;font-variant:normal;font-weight:normal;font-stretch:normal;font-size:13.00888062px;line-height:1.25;font-family:Aaargh;-inkscape-font-specification:Aaargh;text-align:center;letter-spacing:6.30865145px;text-anchor:middle;fill:#f9f9f9;fill-opacity:1;stroke:#ffffff;stroke-width:0.43781251;stroke-miterlimit:4;stroke-dasharray:none">BARBA</tspan></text>
    </g>
    <g
       id="g4768">
      <path
         inkscape:connector-curvature="0"
         id="path4759"
         d="m 202.95776,947.1937 -11.84509,-6.839 c -0.74191,4.8821 -4.57835,7.1997 -12.85035,7.1997 h -5.7257 c -0.11653,0.3881 -0.24082,0.7706 -0.37354,1.1463 -0.002,0.01 -0.003,0.011 -0.005,0.016 -0.002,0.01 -0.004,0.01 -0.006,0.016 -0.13323,0.3753 -0.27547,0.7435 -0.42481,1.106 -0.14538,0.3529 -0.29717,0.7015 -0.45776,1.0419 -0.006,0.014 -0.0135,0.028 -0.0201,0.042 -0.005,0.01 -0.009,0.018 -0.0128,0.027 -0.14208,0.2986 -0.2912,0.5922 -0.44495,0.8808 -0.0357,0.067 -0.0699,0.1349 -0.1062,0.2014 -0.14617,0.2675 -0.29961,0.5289 -0.45593,0.7874 -0.0381,0.063 -0.073,0.1277 -0.1117,0.1904 -0.14356,0.2317 -0.29498,0.4587 -0.44677,0.683 -0.0636,0.094 -0.1254,0.1891 -0.19043,0.282 -0.14564,0.2074 -0.29759,0.409 -0.45044,0.6097 -0.0699,0.092 -0.13551,0.1861 -0.20691,0.2765 -0.22602,0.2861 -0.46027,0.5671 -0.70129,0.8386 -0.21373,0.2408 -0.43219,0.4731 -0.65735,0.7013 -0.11674,0.1184 -0.23915,0.2311 -0.35889,0.3461 -0.11985,0.115 -0.23973,0.2327 -0.36254,0.3442 -0.13175,0.1197 -0.2659,0.2339 -0.40101,0.3497 -0.10605,0.091 -0.21233,0.1827 -0.32044,0.271 -0.15041,0.123 -0.30344,0.2425 -0.45776,0.3607 -0.10774,0.082 -0.21631,0.1636 -0.32592,0.2436 -0.15858,0.116 -0.31914,0.2277 -0.48157,0.3387 -0.0944,0.064 -0.19001,0.1295 -0.28564,0.1923 -0.18222,0.1196 -0.36617,0.2362 -0.55299,0.3497 -0.0895,0.054 -0.17859,0.1064 -0.26916,0.1593 -0.19176,0.1122 -0.38592,0.2239 -0.58227,0.3296 -0.0749,0.04 -0.15154,0.078 -0.22706,0.1172 -0.22005,0.1147 -0.44095,0.2283 -0.66649,0.3351 h 15.32042 c 7.87852,0 13.64459,-1.2502 17.96815,-3.9405 3.49073,-2.1173 5.96059,-5.2965 7.49633,-9.0051 z"
         style="font-style:normal;font-variant:normal;font-weight:600;font-stretch:normal;font-size:medium;line-height:125%;font-family:'URW Gothic L';-inkscape-font-specification:'URW Gothic L Semi-Bold';letter-spacing:1px;word-spacing:0px;fill:#fdc52d;fill-opacity:1;stroke:none;stroke-width:2.80995154px;stroke-linecap:butt;stroke-linejoin:miter;stroke-opacity:1" />
      <path
         inkscape:connector-curvature="0"
         id="path4746"
         d="m 173.7799,889.142 h -0.002 v 12.8668 h 3.33253 c 6.82161,0 10.18249,2.307 10.18249,7.207 0,5.0922 -3.36148,7.3023 -11.33606,7.3023 h -2.17896 v 8.7744 4.0997 h 4.19495 c 9.12753,0 13.45276,2.9789 13.45276,9.3201 0,0.6344 -0.22776,1.079 -0.31311,1.6406 l 11.84509,6.839 c 1.04272,-2.518 1.72669,-5.2392 1.72669,-8.1921 0,-4.4196 -1.24902,-8.743 -3.45887,-11.6254 -2.01766,-2.6902 -4.03626,-4.0348 -8.64806,-5.9564 5.66867,-2.9784 7.87902,-6.7263 7.87902,-13.3557 0,-6.6295 -2.97725,-12.2021 -8.06946,-15.4688 -4.14019,-2.6347 -8.50286,-3.4218 -18.60718,-3.4533 z"
         style="font-style:normal;font-variant:normal;font-weight:600;font-stretch:normal;font-size:medium;line-height:125%;font-family:'URW Gothic L';-inkscape-font-specification:'URW Gothic L Semi-Bold';letter-spacing:1px;word-spacing:0px;fill:#53d0fc;fill-opacity:1;stroke:none;stroke-width:2.80995154px;stroke-linecap:butt;stroke-linejoin:miter;stroke-opacity:1" />
      <path
         inkscape:connector-curvature="0"
         id="path4762"
         d="m 171.72912,929.1633 -13.16345,-7.5989 v 3.7299 12.843 c 0,6.2452 -2.11346,9.3201 -6.34094,9.3201 -3.2667,0 -5.381,-1.8246 -6.24572,-5.3796 h -13.16346 c 0.57648,5.5726 1.633,8.4547 4.51538,11.6253 3.65101,4.0353 9.22437,6.4362 15.18128,6.4362 11.91383,0 19.21691,-8.2606 19.21691,-21.6156 v -0.3864 z"
         style="font-style:normal;font-variant:normal;font-weight:600;font-stretch:normal;font-size:medium;line-height:125%;font-family:'URW Gothic L';-inkscape-font-specification:'URW Gothic L Semi-Bold';letter-spacing:1px;word-spacing:0px;fill:#ff862c;fill-opacity:1;stroke:none;stroke-width:2.80995154px;stroke-linecap:butt;stroke-linejoin:miter;stroke-opacity:1" />
      <path
         inkscape:connector-curvature="0"
         id="path4748"
         d="m 158.56567,889.1383 v 12.8723 2.0508 3.5431 1.7743 12.1856 l 13.16345,7.5989 v -3.869 -17.6898 -3.5431 -2.0508 -12.8723 z"
         style="font-style:normal;font-variant:normal;font-weight:600;font-stretch:normal;font-size:medium;line-height:125%;font-family:'URW Gothic L';-inkscape-font-specification:'URW Gothic L Semi-Bold';letter-spacing:1px;word-spacing:0px;fill:#98fd71;fill-opacity:1;stroke:none;stroke-width:2.80995154px;stroke-linecap:butt;stroke-linejoin:miter;stroke-opacity:1" />
    </g>
  </g>
  <g
     style="display:inline"
     transform="translate(-11.25,-11.250003)"
     inkscape:label="boundaries"
     id="layer2"
     inkscape:groupmode="layer"
     sodipodi:insensitive="true">
    <rect
       y="0"
       x="0"
       height="11.25"
       width="337.5"
       id="rect4217"
       style="opacity:1;fill:#ff0000;fill-opacity:0.17045456;stroke:none;stroke-width:1;stroke-linecap:round;stroke-linejoin:round;stroke-miterlimit:4;stroke-dasharray:none;stroke-dashoffset:0;stroke-opacity:1" />
    <rect
       y="11.25"
       x="0"
       height="191.25"
       width="11.25"
       id="rect4219"
       style="opacity:1;fill:#ff0000;fill-opacity:0.17045456;stroke:none;stroke-width:1;stroke-linecap:round;stroke-linejoin:round;stroke-miterlimit:4;stroke-dasharray:none;stroke-dashoffset:0;stroke-opacity:1" />
    <rect
       y="191.25"
       x="11.25"
       height="11.25"
       width="326.25"
       id="rect4221"
       style="opacity:1;fill:#ff0000;fill-opacity:0.17045456;stroke:none;stroke-width:1;stroke-linecap:round;stroke-linejoin:round;stroke-miterlimit:4;stroke-dasharray:none;stroke-dashoffset:0;stroke-opacity:1" />
    <rect
       y="11.25"
       x="326.25"
       height="180"
       width="11.25"
       id="rect4223"
       style="opacity:1;fill:#ff0000;fill-opacity:0.17045456;stroke:none;stroke-width:1;stroke-linecap:round;stroke-linejoin:round;stroke-miterlimit:4;stroke-dasharray:none;stroke-dashoffset:0;stroke-opacity:1" />
  </g>
</svg>
