<?xml version="1.0" standalone="no"?>
<!DOCTYPE svg PUBLIC "-//W3C//DTD SVG 20010904//EN"
 "http://www.w3.org/TR/2001/REC-SVG-20010904/DTD/svg10.dtd">
<svg version="1.0" xmlns="http://www.w3.org/2000/svg"
 width="250.000000pt" height="250.000000pt" viewBox="0 0 250.000000 250.000000"
 preserveAspectRatio="xMidYMid meet">
<metadata>
Created by potrace 1.11, written by Peter Selinger 2001-2013
</metadata>
<g transform="translate(0.000000,250.000000) scale(0.100000,-0.100000)"
fill="#000000" stroke="none">
<path d="M895 1603 c-1 -483 -4 -902 -7 -932 -9 -74 -52 -157 -96 -186 -52
-34 -136 -43 -196 -20 -55 21 -107 77 -126 134 l-13 40 -228 0 -227 0 3 -43
c25 -289 227 -506 534 -571 85 -18 255 -13 341 9 256 69 437 300 466 596 4 36
7 467 8 958 l1 892 -230 0 -230 0 0 -877z"/>
<path d="M1425 2262 c0 -121 3 -223 5 -226 3 -3 54 -6 114 -7 246 -4 350 -78
348 -250 -1 -173 -109 -244 -377 -252 l-90 -2 0 -218 c0 -120 2 -220 6 -222 3
-2 59 -5 125 -6 266 -4 399 -59 457 -188 47 -106 19 -270 -60 -342 -80 -75
-176 -98 -423 -100 l-149 -1 -12 -36 c-6 -20 -30 -73 -53 -117 -48 -94 -151
-205 -236 -254 l-55 -32 375 4 c392 5 403 6 540 38 278 66 465 249 535 522 42
163 24 348 -48 497 -45 95 -148 193 -255 245 -45 21 -82 41 -82 45 0 3 19 16
42 29 104 59 186 174 208 290 26 142 3 326 -56 443 -90 179 -278 311 -478 334
-28 4 -54 8 -58 10 -3 2 -77 7 -165 10 l-158 6 0 -220z"/>
</g>
</svg>
